<svg width="439" height="306" viewBox="0 0 439 306" fill="none" xmlns="http://www.w3.org/2000/svg">
<path d="M395.41 221.36H42.1101V263.47H395.41V221.36Z" fill="white"/>
<path d="M83.3499 251.09L81.4399 246.21H74.1899L72.4299 251.09H69.8799L77.0599 232.3H78.6899L85.9999 251.09H83.3499ZM78.6299 238.35C78.4599 237.88 78.3099 237.46 78.1999 237.08C78.0899 236.7 77.9799 236.35 77.9099 236.03C77.8299 236.38 77.7299 236.73 77.6099 237.1C77.4899 237.47 77.3499 237.87 77.1799 238.32L75.0799 244H80.5899L78.6299 238.35Z" fill="#0068A9"/>
<path d="M97.16 251.09V242.93C97.1616 242.539 97.1383 242.148 97.09 241.76C97.0475 241.388 96.9427 241.027 96.78 240.69C96.6285 240.376 96.3975 240.107 96.11 239.91C95.7591 239.695 95.3506 239.594 94.94 239.62C94.5707 239.618 94.2033 239.672 93.85 239.78C93.5048 239.894 93.1701 240.038 92.85 240.21C92.5021 240.385 92.1678 240.585 91.85 240.81C91.55 241.03 91.26 241.26 91 241.49V251.09H88.52V237.64H90.62L90.93 239.19C91.3167 238.897 91.6967 238.637 92.07 238.41C92.4272 238.184 92.8017 237.987 93.19 237.82C93.5743 237.658 93.9727 237.53 94.38 237.44C94.8141 237.349 95.2566 237.306 95.7 237.31C96.1948 237.312 96.6854 237.4 97.15 237.57C97.6326 237.754 98.0693 238.04 98.43 238.41C98.8302 238.833 99.1398 239.333 99.34 239.88C99.5843 240.587 99.6995 241.332 99.68 242.08V251.08L97.16 251.09Z" fill="#0068A9"/>
<path d="M121.66 251.09L119.75 246.21H112.5L110.74 251.09H108.19L115.38 232.3H117L124.3 251.09H121.66ZM116.94 238.35C116.77 237.88 116.62 237.46 116.51 237.08C116.4 236.7 116.3 236.35 116.22 236.03C116.14 236.38 116.04 236.73 115.93 237.1C115.82 237.47 115.66 237.87 115.49 238.32L113.39 244H118.9L116.94 238.35Z" fill="#0068A9"/>
<path d="M133.56 240.09C133.145 239.881 132.685 239.774 132.22 239.78C131.741 239.789 131.271 239.912 130.85 240.14C130.297 240.447 129.783 240.819 129.32 241.25V251.09H126.83V237.64H128.89L129.24 239.16C129.6 238.816 129.984 238.499 130.39 238.21C130.705 237.993 131.04 237.805 131.39 237.65C131.656 237.53 131.934 237.439 132.22 237.38C132.467 237.332 132.718 237.309 132.97 237.31C133.289 237.306 133.606 237.354 133.91 237.45C134.151 237.523 134.383 237.623 134.6 237.75L133.56 240.09Z" fill="#0068A9"/>
<path d="M142.2 251.17H140.29L135 237.64H137.56L141.23 247.88L145.23 237.64H147.7L142.2 251.17Z" fill="#0068A9"/>
<path d="M157.58 251.09L157.04 249.81C156.811 250.021 156.567 250.215 156.31 250.39C156.023 250.584 155.718 250.752 155.4 250.89C155.044 251.039 154.676 251.156 154.3 251.24C153.862 251.327 153.417 251.371 152.97 251.37C152.417 251.371 151.868 251.273 151.35 251.08C150.855 250.9 150.403 250.621 150.02 250.26C149.631 249.886 149.321 249.437 149.11 248.94C148.875 248.387 148.759 247.791 148.77 247.19C148.741 246.588 148.853 245.988 149.098 245.437C149.343 244.887 149.713 244.401 150.18 244.02C151.367 243.179 152.796 242.747 154.25 242.79L156.87 242.71V242.2C156.883 241.754 156.811 241.31 156.66 240.89C156.544 240.555 156.344 240.256 156.08 240.02C155.826 239.791 155.521 239.626 155.19 239.54C154.829 239.437 154.455 239.387 154.08 239.39C153.697 239.389 153.315 239.426 152.94 239.5C152.616 239.562 152.298 239.652 151.99 239.77C151.717 239.871 151.453 239.995 151.2 240.14C150.97 240.28 150.75 240.42 150.56 240.56L149.62 238.85C150.005 238.566 150.413 238.315 150.84 238.1C151.228 237.906 151.633 237.749 152.05 237.63C152.449 237.512 152.857 237.429 153.27 237.38C153.692 237.331 154.116 237.308 154.54 237.31C155.194 237.304 155.847 237.385 156.48 237.55C157.044 237.7 157.569 237.97 158.02 238.34C158.46 238.736 158.803 239.229 159.02 239.78C159.283 240.479 159.408 241.223 159.39 241.97V246.48C159.39 247.28 159.39 247.94 159.39 248.48C159.39 249.02 159.39 249.48 159.44 249.81C159.452 250.082 159.482 250.352 159.53 250.62C159.561 250.779 159.602 250.936 159.65 251.09H157.58ZM156.87 244.72L154.42 244.8C153.579 244.776 152.749 244.994 152.03 245.43C151.788 245.611 151.593 245.849 151.464 246.123C151.335 246.397 151.276 246.698 151.29 247C151.289 247.307 151.343 247.612 151.45 247.9C151.546 248.172 151.704 248.418 151.91 248.62C152.133 248.836 152.398 249.003 152.69 249.11C153.033 249.235 153.395 249.296 153.76 249.29C154.117 249.291 154.473 249.248 154.82 249.16C155.119 249.084 155.41 248.98 155.69 248.85C155.933 248.734 156.161 248.589 156.37 248.42C156.547 248.286 156.714 248.139 156.87 247.98V244.72Z" fill="#0068A9"/>
<path d="M169.27 251C168.63 251.237 167.953 251.363 167.27 251.37C166.804 251.381 166.339 251.306 165.9 251.15C165.545 251.025 165.223 250.82 164.96 250.55C164.712 250.283 164.525 249.966 164.41 249.62C164.285 249.229 164.224 248.82 164.23 248.41V239.67H162V237.67H164.24V234.67L166.77 233.88V237.68H170.92L170.1 239.68H166.77V247.57C166.731 248.005 166.845 248.439 167.09 248.8C167.212 248.942 167.367 249.052 167.541 249.122C167.715 249.192 167.903 249.218 168.09 249.2C168.319 249.199 168.547 249.172 168.77 249.12L169.4 248.91C169.594 248.827 169.781 248.731 169.96 248.62C170.13 248.52 170.28 248.41 170.42 248.31L171.16 250.02C170.578 250.432 169.942 250.762 169.27 251V251Z" fill="#0068A9"/>
<path d="M179.4 237.31C180.266 237.299 181.126 237.459 181.93 237.78C182.684 238.085 183.365 238.545 183.93 239.13C184.545 239.781 185.015 240.554 185.31 241.4C185.638 242.366 185.797 243.38 185.78 244.4C185.794 245.421 185.628 246.436 185.29 247.4C184.983 248.255 184.503 249.038 183.88 249.7C183.311 250.267 182.63 250.71 181.88 251C181.08 251.309 180.228 251.462 179.37 251.45C178.574 251.478 177.78 251.348 177.035 251.066C176.29 250.785 175.608 250.358 175.03 249.81C174.38 249.152 173.888 248.355 173.59 247.48C173.255 246.516 173.089 245.501 173.1 244.48C173.083 243.459 173.249 242.443 173.59 241.48C173.897 240.625 174.377 239.842 175 239.18C175.551 238.614 176.211 238.165 176.94 237.86C177.715 237.513 178.551 237.326 179.4 237.31V237.31ZM179.4 239.39C178.849 239.379 178.303 239.502 177.81 239.75C177.346 239.985 176.944 240.328 176.64 240.75C176.314 241.226 176.07 241.753 175.92 242.31C175.754 242.963 175.673 243.636 175.68 244.31C175.677 244.985 175.765 245.658 175.94 246.31C176.09 246.873 176.344 247.402 176.69 247.87C177.003 248.292 177.411 248.634 177.88 248.87C178.374 249.115 178.919 249.239 179.47 249.23C180.015 249.241 180.554 249.117 181.04 248.87C181.501 248.63 181.901 248.288 182.21 247.87C182.546 247.395 182.793 246.863 182.94 246.3C183.267 244.987 183.267 243.613 182.94 242.3C182.796 241.737 182.545 241.208 182.2 240.74C181.894 240.316 181.489 239.973 181.02 239.74C180.507 239.491 179.94 239.371 179.37 239.39H179.4Z" fill="#0068A9"/>
<path d="M207.33 246.35C207.342 247.065 207.181 247.771 206.86 248.41C206.551 249.025 206.111 249.564 205.57 249.99C204.985 250.438 204.325 250.777 203.62 250.99C202.837 251.236 202.021 251.358 201.2 251.35C200.617 251.352 200.035 251.305 199.46 251.21C198.966 251.124 198.478 251.004 198 250.85C197.593 250.711 197.195 250.544 196.81 250.35C196.483 250.181 196.166 249.994 195.86 249.79L197 247.84C197.227 248.012 197.468 248.166 197.72 248.3C198.042 248.472 198.376 248.619 198.72 248.74C199.091 248.878 199.472 248.985 199.86 249.06C200.287 249.154 200.723 249.201 201.16 249.2C201.575 249.2 201.988 249.149 202.39 249.05C202.792 248.959 203.177 248.804 203.53 248.59C203.863 248.38 204.146 248.1 204.36 247.77C204.584 247.411 204.695 246.993 204.68 246.57C204.69 246.101 204.573 245.638 204.34 245.23C204.093 244.832 203.786 244.474 203.43 244.17C203.027 243.834 202.595 243.533 202.14 243.27L200.65 242.42C200.15 242.13 199.65 241.82 199.17 241.5C198.698 241.178 198.265 240.802 197.88 240.38C197.466 239.954 197.127 239.46 196.88 238.92C196.638 238.309 196.52 237.657 196.53 237C196.528 236.358 196.654 235.723 196.9 235.13C197.149 234.545 197.524 234.022 198 233.6C198.52 233.155 199.121 232.816 199.77 232.6C200.541 232.345 201.348 232.22 202.16 232.23C203.023 232.213 203.884 232.314 204.72 232.53C205.325 232.691 205.914 232.905 206.48 233.17V235.67C205.869 235.3 205.219 235.002 204.54 234.78C203.818 234.54 203.061 234.418 202.3 234.42C201.889 234.419 201.48 234.466 201.08 234.56C200.725 234.641 200.386 234.783 200.08 234.98C199.797 235.167 199.56 235.417 199.39 235.71C199.211 236.038 199.121 236.407 199.13 236.78C199.12 237.239 199.246 237.691 199.49 238.08C199.738 238.48 200.053 238.835 200.42 239.13C200.834 239.466 201.276 239.767 201.74 240.03L203.25 240.9C203.77 241.2 204.25 241.51 204.76 241.9C205.214 242.219 205.63 242.588 206 243C206.392 243.435 206.709 243.932 206.94 244.47C207.2 245.062 207.333 245.703 207.33 246.35V246.35Z" fill="#0068A9"/>
<path d="M216.74 252.12C216.392 253.15 215.932 254.139 215.37 255.07C214.973 255.723 214.474 256.307 213.89 256.8C213.423 257.181 212.881 257.461 212.3 257.62C211.753 257.752 211.193 257.819 210.63 257.82C210.126 257.828 209.623 257.778 209.13 257.67C208.723 257.564 208.322 257.434 207.93 257.28L208.55 255.35C208.842 255.501 209.15 255.615 209.47 255.69C209.834 255.775 210.206 255.815 210.58 255.81C210.972 255.809 211.361 255.728 211.72 255.57C212.131 255.381 212.499 255.108 212.8 254.77C213.2 254.336 213.536 253.848 213.8 253.32C214.142 252.623 214.419 251.897 214.63 251.15L208.54 237.64H211.21L215.82 248.16H215.9L219.43 237.64H221.93L216.74 252.12Z" fill="#0068A9"/>
<path d="M232.77 247.34C232.793 247.981 232.651 248.618 232.36 249.19C232.096 249.69 231.715 250.119 231.25 250.44C230.741 250.777 230.175 251.017 229.58 251.15C228.923 251.294 228.253 251.368 227.58 251.37C227.118 251.373 226.657 251.342 226.2 251.28C225.794 251.214 225.393 251.12 225 251C224.66 250.9 224.326 250.78 224 250.64C223.729 250.518 223.466 250.381 223.21 250.23L224.09 248.32C224.303 248.453 224.523 248.573 224.75 248.68C225.007 248.815 225.274 248.929 225.55 249.02C225.845 249.131 226.15 249.215 226.46 249.27C226.789 249.338 227.124 249.372 227.46 249.37C227.82 249.372 228.179 249.332 228.53 249.25C228.829 249.172 229.116 249.051 229.38 248.89C229.602 248.742 229.79 248.547 229.93 248.32C230.068 248.087 230.137 247.82 230.13 247.55C230.139 247.218 230.048 246.89 229.87 246.61C229.682 246.342 229.448 246.108 229.18 245.92C228.867 245.707 228.532 245.529 228.18 245.39C227.81 245.23 227.43 245.07 227.05 244.89C226.664 244.72 226.286 244.53 225.92 244.32C225.551 244.113 225.214 243.853 224.92 243.55C224.629 243.233 224.395 242.867 224.23 242.47C224.042 241.989 223.954 241.476 223.97 240.96C223.964 240.468 224.062 239.981 224.26 239.53C224.455 239.075 224.753 238.671 225.13 238.35C225.564 237.999 226.059 237.731 226.59 237.56C227.238 237.361 227.912 237.263 228.59 237.27C229.262 237.262 229.933 237.329 230.59 237.47C231.13 237.596 231.658 237.767 232.17 237.98V240.14L231.39 239.83C231.13 239.73 230.86 239.65 230.58 239.57C230.287 239.489 229.99 239.426 229.69 239.38C229.359 239.33 229.025 239.306 228.69 239.31C228.384 239.308 228.079 239.338 227.78 239.4C227.522 239.449 227.274 239.543 227.05 239.68C226.842 239.795 226.671 239.965 226.554 240.171C226.438 240.378 226.381 240.613 226.39 240.85C226.383 241.159 226.478 241.461 226.66 241.71C226.854 241.966 227.09 242.186 227.36 242.36C227.679 242.559 228.014 242.733 228.36 242.88L229.52 243.4C229.91 243.58 230.29 243.78 230.67 244C231.039 244.211 231.376 244.473 231.67 244.78C231.965 245.092 232.202 245.455 232.37 245.85C232.611 246.311 232.748 246.82 232.77 247.34Z" fill="#0068A9"/>
<path d="M241.94 251C241.299 251.237 240.623 251.363 239.94 251.37C239.474 251.382 239.009 251.307 238.57 251.15C238.213 251.027 237.891 250.822 237.63 250.55C237.379 250.285 237.191 249.967 237.08 249.62C236.955 249.229 236.894 248.82 236.9 248.41V239.67H234.65V237.67H236.9V234.67L239.43 233.88V237.68H243.58L242.76 239.68H239.43V247.57C239.391 248.005 239.504 248.439 239.75 248.8C239.872 248.942 240.027 249.052 240.201 249.122C240.375 249.192 240.563 249.218 240.75 249.2C240.976 249.199 241.2 249.172 241.42 249.12C241.64 249.06 241.85 248.99 242.06 248.91C242.254 248.827 242.441 248.731 242.62 248.62C242.79 248.52 242.94 248.41 243.08 248.31L243.82 250.02C243.24 250.43 242.608 250.759 241.94 251V251Z" fill="#0068A9"/>
<path d="M248.4 244.9C248.397 245.479 248.495 246.054 248.69 246.6C248.869 247.113 249.148 247.585 249.51 247.99C249.881 248.397 250.334 248.721 250.84 248.94C251.409 249.181 252.022 249.301 252.64 249.29C253.226 249.289 253.808 249.187 254.36 248.99C254.898 248.807 255.417 248.573 255.91 248.29L256.62 250.02C255.983 250.471 255.272 250.81 254.52 251.02C253.754 251.247 252.959 251.365 252.16 251.37C251.176 251.395 250.2 251.189 249.31 250.77C248.535 250.393 247.852 249.85 247.31 249.18C246.77 248.503 246.372 247.724 246.14 246.89C245.881 246.01 245.753 245.097 245.76 244.18C245.751 243.265 245.886 242.354 246.16 241.48C246.405 240.69 246.791 239.952 247.3 239.3C247.789 238.695 248.399 238.197 249.09 237.84C249.817 237.482 250.619 237.3 251.43 237.31C252.243 237.299 253.049 237.466 253.79 237.8C254.478 238.127 255.081 238.61 255.55 239.21C256.045 239.862 256.411 240.601 256.63 241.39C256.897 242.316 257.025 243.276 257.01 244.24V244.9H248.4ZM254.16 241.64C254.049 241.226 253.862 240.836 253.61 240.49C253.37 240.151 253.059 239.868 252.7 239.66C252.303 239.45 251.859 239.343 251.41 239.35C250.973 239.344 250.54 239.443 250.15 239.64C249.766 239.827 249.425 240.093 249.15 240.42C248.873 240.756 248.666 241.143 248.54 241.56C248.406 242.004 248.339 242.466 248.34 242.93H254.34C254.339 242.494 254.278 242.06 254.16 241.64V241.64Z" fill="#0068A9"/>
<path d="M277.32 251.09V242.44C277.322 242.055 277.292 241.67 277.23 241.29C277.188 240.963 277.083 240.647 276.92 240.36C276.774 240.097 276.555 239.882 276.29 239.74C275.961 239.58 275.596 239.504 275.23 239.52C274.838 239.516 274.447 239.57 274.07 239.68C273.706 239.789 273.354 239.937 273.02 240.12C272.702 240.297 272.398 240.497 272.11 240.72C271.83 240.95 271.56 241.16 271.31 241.38C271.321 241.49 271.321 241.6 271.31 241.71V251.09H268.79V242.51C268.79 242.119 268.763 241.728 268.71 241.34C268.664 240.991 268.559 240.653 268.4 240.34C268.248 240.076 268.027 239.858 267.76 239.71C267.43 239.541 267.061 239.462 266.69 239.48C266.3 239.475 265.912 239.533 265.54 239.65C265.194 239.765 264.859 239.912 264.54 240.09C264.218 240.27 263.911 240.474 263.62 240.7C263.33 240.92 263.07 241.14 262.82 241.37V251.05H260.29V237.64H262.4L262.7 239.21C263.444 238.615 264.269 238.13 265.15 237.77C265.878 237.475 266.655 237.319 267.44 237.31C268.192 237.286 268.933 237.495 269.56 237.91C270.134 238.293 270.574 238.845 270.82 239.49C271.19 239.155 271.585 238.847 272 238.57C272.398 238.317 272.812 238.09 273.24 237.89C273.645 237.716 274.063 237.572 274.49 237.46C274.883 237.362 275.285 237.312 275.69 237.31C276.215 237.307 276.737 237.382 277.24 237.53C277.733 237.665 278.188 237.911 278.57 238.25C278.977 238.619 279.292 239.078 279.49 239.59C279.741 240.25 279.86 240.954 279.84 241.66V251.09H277.32Z" fill="#0068A9"/>
<path d="M292.12 247.34C292.138 247.981 291.997 248.617 291.71 249.19C291.439 249.688 291.055 250.116 290.59 250.44C290.081 250.777 289.515 251.017 288.92 251.15C288.263 251.295 287.593 251.369 286.92 251.37C286.458 251.372 285.997 251.342 285.54 251.28C285.152 251.226 284.767 251.146 284.39 251.04C284.049 250.942 283.715 250.821 283.39 250.68C283.122 250.56 282.861 250.423 282.61 250.27L283.48 248.36C283.68 248.48 283.9 248.6 284.14 248.72C284.398 248.853 284.665 248.967 284.94 249.06C285.238 249.171 285.546 249.255 285.86 249.31C286.189 249.379 286.524 249.412 286.86 249.41C287.22 249.413 287.579 249.373 287.93 249.29C288.229 249.212 288.516 249.091 288.78 248.93C289.002 248.782 289.19 248.587 289.33 248.36C289.468 248.127 289.537 247.86 289.53 247.59C289.543 247.257 289.452 246.929 289.27 246.65C289.084 246.379 288.85 246.145 288.58 245.96C288.267 245.747 287.932 245.569 287.58 245.43L286.45 244.93C286.07 244.76 285.69 244.57 285.32 244.36C284.949 244.156 284.612 243.896 284.32 243.59C284.022 243.276 283.785 242.91 283.62 242.51C283.437 242.028 283.348 241.515 283.36 241C283.358 240.509 283.457 240.022 283.65 239.57C283.848 239.117 284.146 238.714 284.52 238.39C284.953 238.039 285.449 237.771 285.98 237.6C286.628 237.401 287.302 237.303 287.98 237.31C288.652 237.304 289.322 237.371 289.98 237.51C290.516 237.638 291.041 237.808 291.55 238.02V240.18L290.77 239.87C290.51 239.77 290.24 239.69 289.96 239.61C289.667 239.529 289.37 239.466 289.07 239.42C288.739 239.37 288.405 239.346 288.07 239.35C287.764 239.348 287.459 239.378 287.16 239.44C286.902 239.489 286.654 239.583 286.43 239.72C286.227 239.834 286.058 240 285.94 240.2C285.823 240.411 285.764 240.649 285.77 240.89C285.763 241.199 285.858 241.501 286.04 241.75C286.235 242.008 286.475 242.229 286.75 242.4C287.067 242.603 287.401 242.777 287.75 242.92L288.9 243.44C289.29 243.62 289.67 243.82 290.05 244.04C290.421 244.248 290.758 244.511 291.05 244.82C291.345 245.132 291.582 245.495 291.75 245.89C291.98 246.34 292.106 246.835 292.12 247.34Z" fill="#0068A9"/>
<path d="M314.84 245.46C314.833 246.14 314.719 246.816 314.5 247.46C314.275 248.141 313.895 248.761 313.39 249.27C312.826 249.846 312.144 250.293 311.39 250.58C310.392 250.947 309.333 251.12 308.27 251.09H303.19V232.36H308.65C309.423 232.345 310.191 232.484 310.91 232.77C311.506 233.02 312.044 233.391 312.49 233.86C312.894 234.289 313.207 234.796 313.41 235.35C313.605 235.875 313.707 236.43 313.71 236.99C313.74 237.858 313.525 238.718 313.09 239.47C312.663 240.165 312.05 240.727 311.32 241.09C311.803 241.158 312.27 241.31 312.7 241.54C313.131 241.778 313.517 242.089 313.84 242.46C314.168 242.849 314.426 243.292 314.6 243.77C314.78 244.315 314.861 244.887 314.84 245.46V245.46ZM305.68 234.61V240.4H308C308.378 240.4 308.753 240.336 309.11 240.21C309.477 240.086 309.817 239.893 310.11 239.64C310.403 239.376 310.641 239.056 310.81 238.7C310.996 238.299 311.089 237.862 311.08 237.42C311.1 237.041 311.04 236.663 310.906 236.308C310.772 235.954 310.565 235.631 310.3 235.36C309.616 234.807 308.746 234.538 307.87 234.61H305.68ZM312.13 245.61C312.132 245.209 312.054 244.811 311.9 244.44C311.742 244.08 311.502 243.762 311.2 243.51C310.868 243.222 310.48 243.008 310.06 242.88C309.552 242.72 309.022 242.643 308.49 242.65H305.68V248.84H308.26C308.829 248.85 309.396 248.769 309.94 248.6C310.383 248.457 310.793 248.229 311.15 247.93C311.464 247.655 311.714 247.313 311.88 246.93C312.054 246.512 312.139 246.063 312.13 245.61V245.61Z" fill="#0068A9"/>
<path d="M324.85 240.09C324.438 239.881 323.982 239.774 323.52 239.78C323.041 239.789 322.571 239.912 322.15 240.14C321.594 240.442 321.08 240.815 320.62 241.25V251.09H318.12V237.64H320.19L320.53 239.16C320.89 238.816 321.275 238.499 321.68 238.21C321.998 237.997 322.333 237.81 322.68 237.65C322.946 237.53 323.224 237.439 323.51 237.38C323.761 237.332 324.015 237.308 324.27 237.31C324.589 237.306 324.906 237.354 325.21 237.45C325.448 237.523 325.676 237.623 325.89 237.75L324.85 240.09Z" fill="#0068A9"/>
<path d="M335.49 251.09L334.95 249.81C334.721 250.021 334.477 250.215 334.22 250.39C333.933 250.584 333.628 250.752 333.31 250.89C332.954 251.039 332.586 251.156 332.21 251.24C331.772 251.326 331.326 251.37 330.88 251.37C330.327 251.371 329.778 251.273 329.26 251.08C328.764 250.903 328.311 250.623 327.93 250.26C327.538 249.888 327.228 249.438 327.02 248.94C326.785 248.387 326.669 247.791 326.68 247.19C326.65 246.588 326.763 245.988 327.008 245.437C327.252 244.887 327.623 244.401 328.09 244.02C329.276 243.178 330.705 242.746 332.16 242.79L334.78 242.71V242.2C334.793 241.754 334.721 241.31 334.57 240.89C334.454 240.562 334.259 240.267 334.003 240.032C333.747 239.797 333.437 239.628 333.1 239.54C332.739 239.437 332.365 239.387 331.99 239.39C331.276 239.389 330.568 239.518 329.9 239.77C329.627 239.871 329.362 239.995 329.11 240.14C328.88 240.28 328.66 240.42 328.47 240.56L327.47 238.85C327.86 238.568 328.271 238.318 328.7 238.1C329.087 237.905 329.492 237.747 329.91 237.63C330.309 237.512 330.717 237.429 331.13 237.38C331.551 237.331 331.976 237.308 332.4 237.31C333.054 237.304 333.707 237.385 334.34 237.55C334.901 237.699 335.423 237.969 335.87 238.34C336.31 238.736 336.652 239.229 336.87 239.78C337.133 240.479 337.258 241.223 337.24 241.97V246.48C337.24 247.28 337.24 247.94 337.24 248.48C337.24 249.02 337.24 249.48 337.29 249.81C337.302 250.082 337.332 250.352 337.38 250.62C337.411 250.779 337.451 250.936 337.5 251.09H335.49ZM334.78 244.72L332.32 244.8C331.482 244.775 330.656 244.994 329.94 245.43C329.698 245.611 329.503 245.849 329.374 246.123C329.245 246.397 329.185 246.698 329.2 247C329.196 247.307 329.247 247.611 329.35 247.9C329.453 248.171 329.613 248.417 329.82 248.62C330.043 248.836 330.308 249.003 330.6 249.11C330.942 249.236 331.305 249.297 331.67 249.29C332.027 249.291 332.383 249.247 332.73 249.16C333.029 249.084 333.32 248.98 333.6 248.85C333.843 248.734 334.071 248.589 334.28 248.42C334.455 248.283 334.622 248.136 334.78 247.98V244.72Z" fill="#0068A9"/>
<path d="M349.79 251.09V242.93C349.792 242.539 349.768 242.148 349.72 241.76C349.678 241.388 349.573 241.027 349.41 240.69C349.259 240.376 349.028 240.107 348.74 239.91C348.389 239.695 347.981 239.594 347.57 239.62C347.201 239.618 346.833 239.672 346.48 239.78C346.135 239.894 345.8 240.038 345.48 240.21C345.132 240.385 344.798 240.585 344.48 240.81C344.185 241.021 343.901 241.248 343.63 241.49V251.09H341.14V237.64H343.24L343.55 239.19C343.937 238.897 344.317 238.637 344.69 238.41C345.047 238.184 345.422 237.987 345.81 237.82C346.194 237.658 346.593 237.53 347 237.44C347.434 237.349 347.877 237.306 348.32 237.31C348.815 237.312 349.305 237.4 349.77 237.57C350.253 237.754 350.689 238.04 351.05 238.41C351.45 238.833 351.76 239.333 351.96 239.88C352.204 240.587 352.32 241.332 352.3 242.08V251.08L349.79 251.09Z" fill="#0068A9"/>
<path d="M365.31 251.08C364.428 251.283 363.525 251.38 362.62 251.37C361.696 251.377 360.777 251.232 359.9 250.94C359.074 250.676 358.311 250.244 357.66 249.67C357.006 249.079 356.491 248.352 356.15 247.54C355.752 246.591 355.558 245.569 355.58 244.54C355.573 243.547 355.76 242.562 356.13 241.64C356.479 240.788 356.992 240.013 357.64 239.36C358.284 238.717 359.049 238.207 359.89 237.86C360.778 237.496 361.73 237.313 362.69 237.32C363.071 237.316 363.452 237.337 363.83 237.38C364.123 237.407 364.414 237.454 364.7 237.52V231H367.23V250.41C366.62 250.712 365.975 250.937 365.31 251.08ZM364.7 239.73L364.32 239.62L363.91 239.52C363.748 239.488 363.585 239.468 363.42 239.46C363.214 239.449 363.007 239.449 362.8 239.46C362.18 239.455 361.566 239.57 360.99 239.8C360.427 240.022 359.919 240.363 359.5 240.8C359.066 241.248 358.726 241.778 358.5 242.36C358.247 242.996 358.118 243.675 358.12 244.36C358.107 245.04 358.212 245.716 358.43 246.36C358.613 246.935 358.924 247.462 359.34 247.9C359.77 248.337 360.288 248.678 360.86 248.9C361.537 249.156 362.256 249.282 362.98 249.27C363.299 249.269 363.617 249.239 363.93 249.18C364.198 249.132 364.459 249.055 364.71 248.95L364.7 239.73Z" fill="#0068A9"/>
<path d="M93 190V140.73H100.6V190H93Z" fill="white"/>
<path d="M138.27 191C124.52 191 112.96 183 112.96 166C112.96 150.69 124.31 139.44 138.37 139.44C141.062 139.371 143.751 139.654 146.37 140.28V118.26H154V187.49C151 189.26 145.25 191 138.27 191ZM146.39 147.37C143.969 146.439 141.382 146.013 138.79 146.12C129.1 146.12 120.67 153.72 120.67 165.49C120.67 176.63 126.81 184.49 139.67 184.49C141.985 184.516 144.284 184.095 146.44 183.25L146.39 147.37Z" fill="white"/>
<path d="M168.89 190V140.73H176.49V190H168.89Z" fill="white"/>
<path d="M201.28 191C196.163 191.158 191.106 189.857 186.7 187.25L189.62 181.32C193.21 183.599 197.368 184.826 201.62 184.86C207.62 184.86 212.04 182.15 212.04 177.57C212.04 165.49 189.65 169.76 189.65 152.47C189.65 145.39 194.75 139.47 206 139.47C210.271 139.424 214.5 140.315 218.39 142.08V148.74C214.95 147.28 211.39 145.82 206.31 145.82C201.23 145.82 197.14 147.6 197.14 152.07C197.14 163.07 219.95 160.3 219.95 176.44C219.92 186.76 211.38 191 201.28 191Z" fill="white"/>
<path d="M246.17 191C243.35 191.038 240.551 190.507 237.94 189.44V212.64H230.34V142.81C233.67 141.67 239.4 139.48 246.48 139.48C261.37 139.48 270.85 149.06 270.85 164.79C270.85 182 258.45 191 246.17 191ZM246.37 146.33C243.511 146.292 240.665 146.714 237.94 147.58V182.46C240.373 183.765 243.089 184.452 245.85 184.46C256.16 184.46 263.14 177.07 263.14 164.88C263.14 152 255.33 146.36 246.37 146.36V146.33Z" fill="white"/>
<path d="M283.14 190V140.73H290.74V190H283.14Z" fill="white"/>
<path d="M337.19 190V159.7C337.19 153.55 336.19 146.7 328.65 146.7C322.65 146.7 317.2 150.97 313.34 154.4V190H305.74V140.73H312L313 146.56C318.83 142.29 323.73 139.48 330.6 139.48C337.68 139.48 344.76 144.58 344.76 156.87V190H337.19Z" fill="white"/>
<path d="M363.85 166.66C363.85 176.04 369.27 184.37 380.2 184.37C384.334 184.242 388.361 183.021 391.87 180.83L394.16 186.03C390.62 188.95 384.37 191.03 378.64 191.03C363.23 191.03 355.73 178.43 355.73 164.37C355.73 150.1 363.85 139.48 375.73 139.48C388.43 139.48 395.41 149.58 395.41 164.89V166.66H363.85ZM375.85 145.94C368.56 145.94 363.98 152.4 363.98 160.21H387.2C387.18 153.33 383.33 145.94 375.83 145.94H375.85Z" fill="white"/>
<path d="M49.3001 183C52.2997 182.597 55.1967 181.634 57.8401 180.16C60.4263 178.74 62.739 176.871 64.6701 174.64C66.6094 172.387 68.1452 169.816 69.2101 167.04C70.3231 164.17 70.8895 161.118 70.8801 158.04V140.9H78.0701V158C78.0979 162.345 77.2263 166.648 75.5101 170.64C73.8569 174.472 71.4802 177.949 68.5101 180.88C65.5409 183.81 62.0512 186.16 58.2201 187.81C54.2318 189.525 49.9316 190.397 45.5901 190.37H42.1101V140.9H49.3001V183Z" fill="white"/>
<path d="M208.32 42.11H189.74V60.69H208.32V42.11Z" fill="#7C74BD"/>
<path d="M256.78 42.11H238.2V60.69H256.78V42.11Z" fill="#6DC3C5"/>
<path d="M208.32 66.34H189.74V84.92H208.32V66.34Z" fill="#0068A9"/>
<path d="M238.2 84.92C240.639 84.92 243.055 84.4393 245.309 83.5055C247.562 82.5716 249.61 81.2029 251.334 79.4774C253.059 77.752 254.427 75.7036 255.359 73.4495C256.292 71.1953 256.771 68.7795 256.77 66.34H238.2V84.92Z" fill="#44A8AA"/>
<path d="M208.32 90.57H189.74V109.15H208.32V90.57Z" fill="#0068A9"/>
<path d="M214 109.15C216.439 109.15 218.855 108.669 221.109 107.735C223.362 106.802 225.41 105.433 227.135 103.707C228.859 101.982 230.227 99.9337 231.159 97.6795C232.092 95.4253 232.571 93.0095 232.57 90.57H214V109.15Z" fill="#44A8AA"/>
</svg>
